{"accessors" : [{"bufferView" : 0, "byteOffset" : 0, "componentType" : 5125, "count" : 432876, "type" : "SCALAR", "max" : [72190], "min" : [0]}, {"bufferView" : 1, "byteOffset" : 0, "componentType" : 5126, "count" : 72191, "type" : "VEC3", "max" : [27.753700256347656, 72.19229888916016, 41.28960037231445], "min" : [-38.192901611328125, -61.725799560546875, -13.206899642944336], "name" : "POSITION"}], "asset" : {"generator" : "Aspose.3D 24.6.0", "version" : "2.0"}, "buffers" : [{"uri" : "buffer.bin", "byteLength" : 2597804}], "bufferViews" : [{"buffer" : 0, "byteOffset" : 0, "byteLength" : 1731504, "target" : 34963}, {"buffer" : 0, "byteOffset" : 1731508, "byteLength" : 866292, "byteStride" : 12, "target" : 34962}], "meshes" : [{"primitives" : [{"attributes" : {"POSITION" : 1}, "indices" : 0, "mode" : 4}], "name" : ""}], "nodes" : [{"mesh" : 0, "name" : ""}], "scene" : 0, "scenes" : [{"nodes" : [0]}]}